*******************************************************************************
                               Zombiefied (2012)
*******************************************************************************

-------------------------------------------------------------------------------
                              General Information
-------------------------------------------------------------------------------
Type.................: Movie



Video Format.........: AVI
Video Bitrate........: 2844
Resolution...........: 720 x 404
Color................: 8 bit
FPS..................: 29.97
Source...............: DVD 16x9
Original Format......: NTSC
Genre................: Horror
IMDb Rating..........: 6.4
Movie Information....: http://www.imdb.com/title/tt1356415

-------------------------------------------------------------------------------
                               Post Information
-------------------------------------------------------------------------------
Posted by............: RadioResearch
Posted on............: 2/2/2013

-------------------------------------------------------------------------------
                                 Release Notes
-------------------------------------------------------------------------------
Friends Tommy and Angel have kept a deadly secret that has tormented them for 13 
years. At a major concert for two popular bands, the fans inside the club 
strangely become rageful, vicious zombies. An outbreak occurs, leaving lead 
singer Alana running for her life and getting separated from her bandmates. Now 
Tommy and Angel must re-live their worst fears as their nightmares become 
reality and the zombie outbreak is spreading. During Alana's escape, she is 
attacked by a twisted serial killer who knows the secret and the bodies are 
adding up.

Enjoy!

RadioResearch

General
Complete name                            : G:AVIZombiefied 
(2012)New_Title1.avi
Format                                   : AVI
Format/Info                              : Audio Video Interleave
Format profile                           : OpenDML
File size                                : 2.11 GiB
Duration                                 : 1h 46mn
Overall bit rate                         : 2 844 Kbps
Movie name                               : New
Genre                                    : Horror
Writing application                      : MEncoder 5.0
Writing library                          : [= DigiArty videodll! =]

Video
ID                                       : 0
Format                                   : MPEG-4 Visual
Format profile                           : Simple@L1
Format settings, BVOP                    : No
Format settings, QPel                    : No
Format settings, GMC                     : No warppoints
Format settings, Matrix                  : Default (H.263)
Codec ID                                 : DX50
Codec ID/Hint                            : DivX 5
Duration                                 : 1h 46mn
Bit rate                                 : 2 582 Kbps
Width                                    : 720 pixels
Height                                   : 404 pixels
Display aspect ratio                     : 16:9
Frame rate                               : 29.970 fps
Color space                              : YUV
Chroma subsampling                       : 4:2:0
Bit depth                                : 8 bits
Scan type                                : Progressive
Compression mode                         : Lossy
Bits/(Pixel*Frame)                       : 0.296
Stream size                              : 1.91 GiB (91%)
Writing library                          : Lavc54.71.100

Audio
ID                                       : 1
Format                                   : MPEG Audio
Format version                           : Version 1
Format profile                           : Layer 2
Codec ID                                 : 50
Duration                                 : 1h 46mn
Bit rate mode                            : Constant
Bit rate                                 : 256 Kbps
Channel(s)                               : 2 channels
Sampling rate                            : 48.0 KHz
Compression mode                         : Lossy
Stream size                              : 194 MiB (9%)
Alignment                                : Split accross interleaves
Interleave, duration                     : 500 ms (14.98 video frames)
Interleave, preload duration             : 500 ms



-------------------------------------------------------------------------------
Generated with Cool NFO Creator - http://fly.to/coolbeans
-------------------------------------------------------------------------------
